<?xml version="1.0" encoding="utf-8"?>
<!-- Generator: Adobe Illustrator 16.0.0, SVG Export Plug-In . SVG Version: 6.00 Build 0)  -->
<!DOCTYPE svg PUBLIC "-//W3C//DTD SVG 1.1//EN" "http://www.w3.org/Graphics/SVG/1.1/DTD/svg11.dtd">
<svg version="1.1" id="Layer_1" xmlns="http://www.w3.org/2000/svg" xmlns:xlink="http://www.w3.org/1999/xlink" x="0px" y="0px"
	 width="227.311px" height="76.107px" viewBox="211.638 365.418 227.311 76.107"
	 enable-background="new 211.638 365.418 227.311 76.107" xml:space="preserve">
<g>
	<path fill="#E0410A" d="M321.688,369.885l-10.305,14.308c-0.229,0.368-0.598,0.507-0.92,0.507h-0.092
		c-0.414,0-0.736-0.139-0.967-0.507L299.1,369.931v26.453c0,0.602-0.506,1.104-1.104,1.104c-0.645,0-1.15-0.506-1.15-1.104v-29.812
		c0-0.367,0.186-0.689,0.46-0.874c0-0.046,0.047-0.046,0.094-0.092c0.506-0.322,1.195-0.229,1.562,0.276l11.456,15.872
		l11.409-15.872c0.322-0.506,1.058-0.599,1.562-0.276c0.142,0.139,0.23,0.23,0.322,0.368c0.092,0.185,0.187,0.414,0.187,0.598
		v29.812c0,0.602-0.509,1.104-1.104,1.104c-0.645,0-1.104-0.506-1.104-1.104v-26.499H321.688z"/>
	<path fill="#E0410A" d="M340.179,374.945c5.938,0,10.673,5.153,10.673,11.271c0,6.119-4.735,11.271-10.673,11.271
		c-5.889,0-10.673-5.152-10.673-11.271C329.506,380.099,334.29,374.945,340.179,374.945z M340.179,395.28
		c4.604,0,8.465-4.049,8.465-9.063c0-5.014-3.861-9.108-8.465-9.108c-4.601,0-8.465,4.094-8.465,9.108
		C331.714,391.231,335.578,395.28,340.179,395.28z"/>
	<path fill="#E0410A" d="M358.394,376.096c0-0.644,0.509-1.104,1.15-1.104c0.552,0,1.058,0.46,1.058,1.104v4.969
		c0.096-0.184,0.188-0.368,0.322-0.552c1.702-2.669,4.692-5.521,9.021-5.521c0.598,0,1.104,0.46,1.104,1.104
		c0,0.599-0.506,1.104-1.104,1.104c-2.944,0-4.972,1.656-6.533,3.681c-1.521,2.023-2.396,4.324-2.714,5.244
		c-0.096,0.184-0.096,0.276-0.096,0.368v9.891c0,0.646-0.506,1.104-1.058,1.104c-0.645,0-1.147-0.46-1.147-1.104L358.394,376.096
		L358.394,376.096z"/>
	<path fill="#E0410A" d="M386.454,376.05c0,0.552-0.552,1.104-1.104,1.104h-2.896v16.424c0,1.104,1.104,1.656,1.656,1.656
		c0.552,0,1.147,0.598,1.147,1.148c0,0.553-0.598,1.104-1.147,1.104c-2.257,0-3.956-1.656-3.956-3.91v-16.424h-2.81
		c-1.104,0-1.104-0.553-1.104-1.104c0-0.551,0-1.104,1.104-1.104h2.81v-8.373c0-0.552,0.552-1.104,1.104-1.104
		c0.6,0,1.195,0.552,1.195,1.104v8.373h2.896C385.902,374.945,386.454,375.498,386.454,376.05z"/>
	<path fill="#E0410A" d="M401.312,374.945c5.935,0,10.673,5.153,10.673,11.271c0,6.119-4.738,11.271-10.673,11.271
		c-5.892,0-10.676-5.152-10.676-11.271C390.639,380.099,395.423,374.945,401.312,374.945z M401.312,395.28
		c4.601,0,8.465-4.049,8.465-9.063c0-5.014-3.864-9.108-8.465-9.108c-4.604,0-8.468,4.094-8.468,9.108
		C392.847,391.231,396.711,395.28,401.312,395.28z"/>
	<path fill="#E0410A" d="M436.548,384.146c0-3.818-3.082-6.946-6.946-6.946c-3.815,0-6.897,3.128-6.99,6.946v12.237v0.188
		c-0.049,0.184-0.095,0.365-0.229,0.506c-0.185,0.273-0.506,0.414-0.828,0.414h-0.273c-0.322-0.092-0.601-0.322-0.736-0.601
		c-0.046-0.047-0.046-0.093-0.046-0.139s-0.046-0.092-0.046-0.092v-0.276v-12.237v-0.368v-7.683c0-0.598,0.46-1.104,1.104-1.104
		c0.601,0,1.061,0.506,1.061,1.104v2.162c1.653-1.978,4.187-3.266,6.993-3.266c5.061,0,9.152,4.14,9.152,9.154v12.237
		c0,0.646-0.507,1.104-1.104,1.104c-0.6,0-1.104-0.46-1.104-1.104v-12.236H436.548L436.548,384.146z"/>
	<path fill="#E0410A" d="M312.107,417.229c-0.642,0.088-1.201-0.306-1.286-0.94c-0.084-0.64,0.352-1.207,0.987-1.292l9.854-1.305
		l0.137-0.021c0.554-0.027,1.077,0.415,1.155,1.007l1.449,10.945l0.021,0.184c-0.004,0.324-0.099,0.662-0.302,0.875
		c-2.531,2.609-5.92,4.357-9.842,4.877c-9.174,1.168-17.557-5.008-18.752-14.035c-1.179-8.896,5.296-17.133,14.463-18.347
		c3.968-0.522,7.661,0.378,10.83,2.232c0.453,0.265,0.689,1.021,0.342,1.532c-0.305,0.505-0.979,0.687-1.572,0.394
		c-2.579-1.604-5.883-2.376-9.304-1.923c-7.98,1.058-13.539,8.151-12.524,15.812c1.027,7.757,8.24,13.156,16.223,12.103
		c3.101-0.411,5.932-1.811,8.071-3.854l-1.241-9.395L312.107,417.229z"/>
	<path fill="#E0410A" d="M329.183,410.695c0-0.646,0.509-1.104,1.15-1.104c0.552,0,1.058,0.46,1.058,1.104v4.969
		c0.096-0.184,0.188-0.368,0.322-0.552c1.702-2.669,4.692-5.521,9.021-5.521c0.598,0,1.104,0.46,1.104,1.104
		c0,0.599-0.506,1.104-1.104,1.104c-2.944,0-4.972,1.656-6.533,3.684c-1.521,2.021-2.396,4.321-2.714,5.241
		c-0.096,0.187-0.096,0.276-0.096,0.368v9.894c0,0.645-0.506,1.104-1.058,1.104c-0.645,0-1.15-0.46-1.15-1.104V410.695
		L329.183,410.695z"/>
	<path fill="#E0410A" d="M362.534,410.649v20.334c0,0.599-0.506,1.104-1.104,1.104c-0.598,0-1.104-0.506-1.104-1.104v-3.358
		c-1.936,2.669-5.018,4.463-8.465,4.463c-5.938,0-10.677-5.104-10.677-11.271c0-6.164,4.739-11.271,10.677-11.271
		c3.447,0,6.529,1.749,8.465,4.417v-3.312c0-0.646,0.506-1.104,1.104-1.104C362.028,409.545,362.534,410.006,362.534,410.649z
		 M360.326,420.816c0-5.062-3.818-9.108-8.465-9.108c-4.604,0-8.465,4.048-8.465,9.108c0,5.06,3.861,9.062,8.465,9.062
		C356.508,429.88,360.326,425.877,360.326,420.816z"/>
	<path fill="#E0410A" d="M367.499,421.185v-0.46v-0.46v-9.612c0-0.601,0.506-1.104,1.104-1.104c0.646,0,1.15,0.507,1.15,1.104v3.267
		c1.932-2.622,5.062-4.371,8.557-4.371c6.072,0,10.903,5.017,10.903,11.18c0,6.119-4.831,11.229-10.903,11.229
		c-3.493,0-6.625-1.748-8.557-4.417v12.882c0,0.598-0.507,1.104-1.15,1.104c-0.599,0-1.104-0.509-1.104-1.104V421.185z
		 M369.754,420.725c0,4.972,3.91,8.974,8.557,9.02c4.784-0.046,8.648-4.048,8.648-9.02c0-4.969-3.864-8.925-8.648-8.925
		c-4.555,0-8.37,3.772-8.557,8.56V420.725z"/>
	<path fill="#E0410A" d="M409.821,418.425c0-3.957-3.224-6.625-7.181-6.625c-3.907,0-7.13,2.668-7.13,6.625v12.562v0.139
		c0,0.092-0.047,0.138-0.047,0.184c-0.046,0.095-0.046,0.141-0.092,0.188c-0.138,0.272-0.368,0.46-0.689,0.552
		c0,0-0.047,0.046-0.093,0.046h-0.09h-0.138c-0.322,0-0.646-0.138-0.874-0.368c-0.096-0.138-0.142-0.229-0.188-0.367
		s-0.046-0.229-0.046-0.366v-12.562v-0.368v-17.065c0-0.601,0.506-1.104,1.104-1.104c0.644,0,1.147,0.508,1.147,1.104v11.869
		c1.702-2.024,4.278-3.312,7.13-3.312c5.199,0,9.435,3.683,9.435,8.88v12.562c0,0.599-0.506,1.104-1.15,1.104
		c-0.598,0-1.104-0.506-1.104-1.104v-12.562h0.003L409.821,418.425L409.821,418.425z"/>
	<path fill="#E0410A" d="M415.2,430.294l10.352-14.216L415.2,401.862c-0.414-0.506-0.322-1.242,0.184-1.564
		c0.507-0.414,1.242-0.321,1.564,0.188l9.98,13.709l9.983-13.709c0.414-0.509,1.058-0.602,1.562-0.188
		c0.51,0.322,0.646,1.062,0.23,1.564l-10.397,14.216l10.397,14.216c0.414,0.506,0.276,1.196-0.23,1.563
		c-0.229,0.139-0.414,0.229-0.644,0.229c-0.368,0-0.69-0.184-0.92-0.506l-9.983-13.664l-9.98,13.664
		c-0.187,0.322-0.555,0.506-0.874,0.506c-0.23,0-0.46-0.092-0.69-0.229C414.878,431.49,414.786,430.8,415.2,430.294z"/>
</g>
<polygon fill="#E0410A" points="245.79,406.685 234.417,388.699 230.408,389.24 233.713,413.745 259.307,410.294 255.92,384.8 
	251.916,385.499 "/>
<polygon fill="#E0410A" points="261.786,403.404 262.816,412.098 231.168,416.217 227.064,385.743 269.584,378.61 269.584,366.996 
	211.638,366.996 211.638,430.242 278.031,430.242 278.031,403.404 "/>
</svg>
